<svg width="16" height="16" viewBox="0 0 16 16" fill="none" xmlns="http://www.w3.org/2000/svg">
<path d="M15.375 6.17063L11.875 2.17062C11.8282 2.11718 11.7705 2.07431 11.7059 2.04489C11.6412 2.01547 11.571 2.00017 11.5 2H4.49997C4.42893 2.00017 4.35874 2.01547 4.29408 2.04489C4.22942 2.07431 4.17177 2.11718 4.12497 2.17062L0.624972 6.17063C0.543321 6.26385 0.499198 6.38407 0.501161 6.50798C0.503125 6.63189 0.551034 6.75066 0.635598 6.84125L7.6356 14.3413C7.68238 14.3914 7.73898 14.4314 7.80188 14.4587C7.86478 14.4861 7.93264 14.5002 8.00122 14.5002C8.06981 14.5002 8.13766 14.4861 8.20056 14.4587C8.26346 14.4314 8.32006 14.3914 8.36685 14.3413L15.3668 6.84125C15.4511 6.75035 15.4985 6.63141 15.5 6.5075C15.5015 6.38359 15.457 6.26354 15.375 6.17063ZM13.8981 6H11.25L8.99997 3H11.2731L13.8981 6ZM4.66122 7L6.54435 11.7081L2.1506 7H4.66122ZM10.2612 7L7.99997 12.6538L5.73872 7H10.2612ZM5.99997 6L7.99997 3.33313L9.99997 6H5.99997ZM11.3387 7H13.8493L9.4556 11.7081L11.3387 7ZM4.72685 3H6.99997L4.74997 6H2.10185L4.72685 3Z" fill="#7D8D8E"/>
</svg>
