<svg width="16" height="16" viewBox="0 0 16 16" fill="none" xmlns="http://www.w3.org/2000/svg">
<path d="M10.875 2.98436C10.103 2.09275 9.23409 1.28989 8.28438 0.590607C8.2003 0.531714 8.10015 0.500122 7.9975 0.500122C7.89485 0.500122 7.7947 0.531714 7.71063 0.590607C6.76266 1.29018 5.89545 2.09304 5.125 2.98436C3.40688 4.95748 2.5 7.03748 2.5 8.99998C2.5 10.4587 3.07946 11.8576 4.11091 12.8891C5.14236 13.9205 6.54131 14.5 8 14.5C9.45869 14.5 10.8576 13.9205 11.8891 12.8891C12.9205 11.8576 13.5 10.4587 13.5 8.99998C13.5 7.03748 12.5931 4.95748 10.875 2.98436ZM8 13.5C6.80693 13.4987 5.66311 13.0241 4.81948 12.1805C3.97585 11.3369 3.50132 10.1931 3.5 8.99998C3.5 5.42311 6.96688 2.43748 8 1.62498C9.03312 2.43748 12.5 5.42186 12.5 8.99998C12.4987 10.1931 12.0241 11.3369 11.1805 12.1805C10.3369 13.0241 9.19307 13.4987 8 13.5ZM11.4931 9.58373C11.3635 10.3079 11.0151 10.975 10.4948 11.4952C9.9745 12.0153 9.30734 12.3636 8.58313 12.4931C8.55563 12.4975 8.52784 12.4998 8.5 12.5C8.37458 12.5 8.25375 12.4528 8.16148 12.3678C8.06921 12.2829 8.01223 12.1664 8.00185 12.0414C7.99146 11.9164 8.02843 11.7921 8.10542 11.6931C8.18242 11.594 8.2938 11.5276 8.4175 11.5069C9.45312 11.3325 10.3319 10.4537 10.5075 9.41623C10.5297 9.28545 10.603 9.16884 10.7112 9.09207C10.8193 9.0153 10.9536 8.98465 11.0844 9.00686C11.2152 9.02907 11.3318 9.10233 11.4085 9.21051C11.4853 9.3187 11.516 9.45295 11.4937 9.58373H11.4931Z" fill="#7D8D8E"/>
</svg>
