<svg width="16" height="16" viewBox="0 0 16 16" fill="none" xmlns="http://www.w3.org/2000/svg">
<path d="M8 4.49997C8.13261 4.49997 8.25979 4.55265 8.35356 4.64642C8.44733 4.74018 8.5 4.86736 8.5 4.99997V8.49997C8.5 8.63258 8.44733 8.75976 8.35356 8.85352C8.25979 8.94729 8.13261 8.99997 8 8.99997C7.8674 8.99997 7.74022 8.94729 7.64645 8.85352C7.55268 8.75976 7.5 8.63258 7.5 8.49997V4.99997C7.5 4.86736 7.55268 4.74018 7.64645 4.64642C7.74022 4.55265 7.8674 4.49997 8 4.49997ZM7.25 10.75C7.25 10.8983 7.29399 11.0433 7.3764 11.1666C7.45881 11.29 7.57595 11.3861 7.71299 11.4429C7.85004 11.4996 8.00084 11.5145 8.14632 11.4856C8.29181 11.4566 8.42544 11.3852 8.53033 11.2803C8.63522 11.1754 8.70665 11.0418 8.73559 10.8963C8.76453 10.7508 8.74968 10.6 8.69291 10.463C8.63615 10.3259 8.54002 10.2088 8.41668 10.1264C8.29334 10.044 8.14834 9.99997 8 9.99997C7.80109 9.99997 7.61033 10.079 7.46967 10.2196C7.32902 10.3603 7.25 10.5511 7.25 10.75ZM15 7.99997C15.0004 8.13094 14.9748 8.26069 14.9247 8.3817C14.8746 8.50271 14.801 8.61259 14.7081 8.70497L8.705 14.7087C8.51764 14.895 8.26419 14.9995 8 14.9995C7.73582 14.9995 7.48237 14.895 7.295 14.7087L1.295 8.70497C1.10875 8.51761 1.00421 8.26416 1.00421 7.99997C1.00421 7.73578 1.10875 7.48233 1.295 7.29497L7.29813 1.29122C7.48549 1.10497 7.73894 1.00043 8.00313 1.00043C8.26731 1.00043 8.52077 1.10497 8.70813 1.29122L14.7113 7.29497C14.8035 7.38761 14.8766 7.4976 14.9261 7.6186C14.9757 7.7396 15.0008 7.86922 15 7.99997ZM14 7.99997L8 1.99997L2 7.99997L8 14L14 7.99997Z" fill="#7D8D8E"/>
</svg>
