<svg width="1056" height="112" viewBox="0 0 1056 112" fill="none" xmlns="http://www.w3.org/2000/svg">
<rect y="32" width="29.1176" height="36" rx="4" fill="#131A1B"/>
<rect y="74" width="29.1176" height="20" rx="4" fill="url(#paint0_linear_27_703)"/>
<rect y="100" width="29.1176" height="12" rx="4" fill="#1FE9F7"/>
<rect x="31.1176" y="26" width="29.1176" height="36" rx="4" fill="#131A1B"/>
<rect x="31.1176" y="68" width="29.1176" height="20" rx="4" fill="url(#paint1_linear_27_703)"/>
<rect x="31.1176" y="94" width="29.1176" height="18" rx="4" fill="#1FE9F7"/>
<rect x="62.2353" y="22" width="29.1176" height="36" rx="4" fill="#131A1B"/>
<rect x="62.2353" y="64" width="29.1176" height="20" rx="4" fill="url(#paint2_linear_27_703)"/>
<rect x="62.2353" y="90" width="29.1176" height="22" rx="4" fill="#1FE9F7"/>
<rect x="93.3529" y="28" width="29.1176" height="36" rx="4" fill="#131A1B"/>
<rect x="93.3529" y="70" width="29.1176" height="20" rx="4" fill="url(#paint3_linear_27_703)"/>
<rect x="93.3529" y="96" width="29.1176" height="16" rx="4" fill="#1FE9F7"/>
<rect x="124.471" y="17" width="29.1176" height="36" rx="4" fill="#131A1B"/>
<rect x="124.471" y="59" width="29.1176" height="20" rx="4" fill="url(#paint4_linear_27_703)"/>
<rect x="124.471" y="85" width="29.1176" height="27" rx="4" fill="#1FE9F7"/>
<rect x="155.588" y="32" width="29.1176" height="36" rx="4" fill="#131A1B"/>
<rect x="155.588" y="74" width="29.1176" height="20" rx="4" fill="url(#paint5_linear_27_703)"/>
<rect x="155.588" y="100" width="29.1176" height="12" rx="4" fill="#1FE9F7"/>
<rect x="186.706" width="29.1176" height="36" rx="4" fill="#131A1B"/>
<rect x="186.706" y="42" width="29.1176" height="20" rx="4" fill="url(#paint6_linear_27_703)"/>
<rect x="186.706" y="68" width="29.1176" height="44" rx="4" fill="#1FE9F7"/>
<rect x="217.824" y="26" width="29.1176" height="36" rx="4" fill="#131A1B"/>
<rect x="217.824" y="68" width="29.1176" height="20" rx="4" fill="url(#paint7_linear_27_703)"/>
<rect x="217.824" y="94" width="29.1176" height="18" rx="4" fill="#1FE9F7"/>
<rect x="248.941" y="17" width="29.1176" height="36" rx="4" fill="#131A1B"/>
<rect x="248.941" y="59" width="29.1176" height="20" rx="4" fill="url(#paint8_linear_27_703)"/>
<rect x="248.941" y="85" width="29.1176" height="27" rx="4" fill="#1FE9F7"/>
<rect x="280.059" y="22" width="29.1176" height="36" rx="4" fill="#131A1B"/>
<rect x="280.059" y="64" width="29.1176" height="20" rx="4" fill="url(#paint9_linear_27_703)"/>
<rect x="280.059" y="90" width="29.1176" height="22" rx="4" fill="#1FE9F7"/>
<rect x="311.176" y="19" width="29.1176" height="36" rx="4" fill="#131A1B"/>
<rect x="311.176" y="61" width="29.1176" height="20" rx="4" fill="url(#paint10_linear_27_703)"/>
<rect x="311.176" y="87" width="29.1176" height="25" rx="4" fill="#1FE9F7"/>
<rect x="342.294" y="28" width="29.1176" height="36" rx="4" fill="#131A1B"/>
<rect x="342.294" y="70" width="29.1176" height="20" rx="4" fill="url(#paint11_linear_27_703)"/>
<rect x="342.294" y="96" width="29.1176" height="16" rx="4" fill="#1FE9F7"/>
<rect x="373.412" y="28" width="29.1176" height="36" rx="4" fill="#131A1B"/>
<rect x="373.412" y="70" width="29.1176" height="20" rx="4" fill="url(#paint12_linear_27_703)"/>
<rect x="373.412" y="96" width="29.1176" height="16" rx="4" fill="#1FE9F7"/>
<rect x="404.529" y="17" width="29.1176" height="36" rx="4" fill="#131A1B"/>
<rect x="404.529" y="59" width="29.1176" height="20" rx="4" fill="url(#paint13_linear_27_703)"/>
<rect x="404.529" y="85" width="29.1176" height="27" rx="4" fill="#1FE9F7"/>
<rect x="435.647" y="19" width="29.1176" height="36" rx="4" fill="#131A1B"/>
<rect x="435.647" y="61" width="29.1176" height="20" rx="4" fill="url(#paint14_linear_27_703)"/>
<rect x="435.647" y="87" width="29.1176" height="25" rx="4" fill="#1FE9F7"/>
<rect x="466.765" width="29.1176" height="36" rx="4" fill="#131A1B"/>
<rect x="466.765" y="42" width="29.1176" height="20" rx="4" fill="url(#paint15_linear_27_703)"/>
<rect x="466.765" y="68" width="29.1176" height="44" rx="4" fill="#1FE9F7"/>
<rect x="497.882" y="22" width="29.1176" height="36" rx="4" fill="#131A1B"/>
<rect x="497.882" y="64" width="29.1176" height="20" rx="4" fill="url(#paint16_linear_27_703)"/>
<rect x="497.882" y="90" width="29.1176" height="22" rx="4" fill="#1FE9F7"/>
<rect x="529" y="17" width="29.1176" height="36" rx="4" fill="#131A1B"/>
<rect x="529" y="59" width="29.1176" height="20" rx="4" fill="url(#paint17_linear_27_703)"/>
<rect x="529" y="85" width="29.1176" height="27" rx="4" fill="#1FE9F7"/>
<rect x="560.118" y="20" width="29.1176" height="36" rx="4" fill="#131A1B"/>
<rect x="560.118" y="62" width="29.1176" height="20" rx="4" fill="url(#paint18_linear_27_703)"/>
<rect x="560.118" y="88" width="29.1176" height="24" rx="4" fill="#1FE9F7"/>
<rect x="591.235" y="19" width="29.1176" height="36" rx="4" fill="#131A1B"/>
<rect x="591.235" y="61" width="29.1176" height="20" rx="4" fill="url(#paint19_linear_27_703)"/>
<rect x="591.235" y="87" width="29.1176" height="25" rx="4" fill="#1FE9F7"/>
<rect x="622.353" y="26" width="29.1176" height="36" rx="4" fill="#131A1B"/>
<rect x="622.353" y="68" width="29.1176" height="20" rx="4" fill="url(#paint20_linear_27_703)"/>
<rect x="622.353" y="94" width="29.1176" height="18" rx="4" fill="#1FE9F7"/>
<rect x="653.471" y="28" width="29.1176" height="36" rx="4" fill="#131A1B"/>
<rect x="653.471" y="70" width="29.1176" height="20" rx="4" fill="url(#paint21_linear_27_703)"/>
<rect x="653.471" y="96" width="29.1176" height="16" rx="4" fill="#1FE9F7"/>
<rect x="684.588" y="32" width="29.1176" height="36" rx="4" fill="#131A1B"/>
<rect x="684.588" y="74" width="29.1176" height="20" rx="4" fill="url(#paint22_linear_27_703)"/>
<rect x="684.588" y="100" width="29.1176" height="12" rx="4" fill="#1FE9F7"/>
<rect x="715.706" y="19" width="29.1176" height="36" rx="4" fill="#131A1B"/>
<rect x="715.706" y="61" width="29.1176" height="20" rx="4" fill="url(#paint23_linear_27_703)"/>
<rect x="715.706" y="87" width="29.1176" height="25" rx="4" fill="#1FE9F7"/>
<rect x="746.824" y="26" width="29.1176" height="36" rx="4" fill="#131A1B"/>
<rect x="746.824" y="68" width="29.1176" height="20" rx="4" fill="url(#paint24_linear_27_703)"/>
<rect x="746.824" y="94" width="29.1176" height="18" rx="4" fill="#1FE9F7"/>
<rect x="777.941" y="22" width="29.1176" height="36" rx="4" fill="#131A1B"/>
<rect x="777.941" y="64" width="29.1176" height="20" rx="4" fill="url(#paint25_linear_27_703)"/>
<rect x="777.941" y="90" width="29.1176" height="22" rx="4" fill="#1FE9F7"/>
<rect x="809.059" y="22" width="29.1176" height="36" rx="4" fill="#131A1B"/>
<rect x="809.059" y="64" width="29.1176" height="20" rx="4" fill="url(#paint26_linear_27_703)"/>
<rect x="809.059" y="90" width="29.1176" height="22" rx="4" fill="#1FE9F7"/>
<rect x="840.177" y="20" width="29.1176" height="36" rx="4" fill="#131A1B"/>
<rect x="840.177" y="62" width="29.1176" height="20" rx="4" fill="url(#paint27_linear_27_703)"/>
<rect x="840.177" y="88" width="29.1176" height="24" rx="4" fill="#1FE9F7"/>
<rect x="871.294" width="29.1176" height="36" rx="4" fill="#131A1B"/>
<rect x="871.294" y="42" width="29.1176" height="20" rx="4" fill="url(#paint28_linear_27_703)"/>
<rect x="871.294" y="68" width="29.1176" height="44" rx="4" fill="#1FE9F7"/>
<rect x="902.412" y="26" width="29.1176" height="36" rx="4" fill="#131A1B"/>
<rect x="902.412" y="68" width="29.1176" height="20" rx="4" fill="url(#paint29_linear_27_703)"/>
<rect x="902.412" y="94" width="29.1176" height="18" rx="4" fill="#1FE9F7"/>
<rect x="933.53" y="32" width="29.1176" height="36" rx="4" fill="#131A1B"/>
<rect x="933.53" y="74" width="29.1176" height="20" rx="4" fill="url(#paint30_linear_27_703)"/>
<rect x="933.53" y="100" width="29.1176" height="12" rx="4" fill="#1FE9F7"/>
<rect x="964.647" y="26" width="29.1176" height="36" rx="4" fill="#131A1B"/>
<rect x="964.647" y="68" width="29.1176" height="20" rx="4" fill="url(#paint31_linear_27_703)"/>
<rect x="964.647" y="94" width="29.1176" height="18" rx="4" fill="#1FE9F7"/>
<rect x="995.765" y="22" width="29.1176" height="36" rx="4" fill="#131A1B"/>
<rect x="995.765" y="64" width="29.1176" height="20" rx="4" fill="url(#paint32_linear_27_703)"/>
<rect x="995.765" y="90" width="29.1176" height="22" rx="4" fill="#1FE9F7"/>
<rect x="1026.88" width="29.1176" height="36" rx="4" fill="#131A1B"/>
<rect x="1026.88" y="42" width="29.1176" height="20" rx="4" fill="url(#paint33_linear_27_703)"/>
<rect x="1026.88" y="68" width="29.1176" height="44" rx="4" fill="#1FE9F7"/>
<defs>
<linearGradient id="paint0_linear_27_703" x1="14.5588" y1="74" x2="14.5588" y2="94" gradientUnits="userSpaceOnUse">
<stop stop-color="#1FE9F7" stop-opacity="0.12"/>
<stop offset="1" stop-color="#1FE9F7"/>
</linearGradient>
<linearGradient id="paint1_linear_27_703" x1="45.6765" y1="68" x2="45.6765" y2="88" gradientUnits="userSpaceOnUse">
<stop stop-color="#1FE9F7" stop-opacity="0.12"/>
<stop offset="1" stop-color="#1FE9F7"/>
</linearGradient>
<linearGradient id="paint2_linear_27_703" x1="76.7941" y1="64" x2="76.7941" y2="84" gradientUnits="userSpaceOnUse">
<stop stop-color="#1FE9F7" stop-opacity="0.12"/>
<stop offset="1" stop-color="#1FE9F7"/>
</linearGradient>
<linearGradient id="paint3_linear_27_703" x1="107.912" y1="70" x2="107.912" y2="90" gradientUnits="userSpaceOnUse">
<stop stop-color="#1FE9F7" stop-opacity="0.12"/>
<stop offset="1" stop-color="#1FE9F7"/>
</linearGradient>
<linearGradient id="paint4_linear_27_703" x1="139.029" y1="59" x2="139.029" y2="79" gradientUnits="userSpaceOnUse">
<stop stop-color="#1FE9F7" stop-opacity="0.12"/>
<stop offset="1" stop-color="#1FE9F7"/>
</linearGradient>
<linearGradient id="paint5_linear_27_703" x1="170.147" y1="74" x2="170.147" y2="94" gradientUnits="userSpaceOnUse">
<stop stop-color="#1FE9F7" stop-opacity="0.12"/>
<stop offset="1" stop-color="#1FE9F7"/>
</linearGradient>
<linearGradient id="paint6_linear_27_703" x1="201.265" y1="42" x2="201.265" y2="62" gradientUnits="userSpaceOnUse">
<stop stop-color="#1FE9F7" stop-opacity="0.12"/>
<stop offset="1" stop-color="#1FE9F7"/>
</linearGradient>
<linearGradient id="paint7_linear_27_703" x1="232.382" y1="68" x2="232.382" y2="88" gradientUnits="userSpaceOnUse">
<stop stop-color="#1FE9F7" stop-opacity="0.12"/>
<stop offset="1" stop-color="#1FE9F7"/>
</linearGradient>
<linearGradient id="paint8_linear_27_703" x1="263.5" y1="59" x2="263.5" y2="79" gradientUnits="userSpaceOnUse">
<stop stop-color="#1FE9F7" stop-opacity="0.12"/>
<stop offset="1" stop-color="#1FE9F7"/>
</linearGradient>
<linearGradient id="paint9_linear_27_703" x1="294.618" y1="64" x2="294.618" y2="84" gradientUnits="userSpaceOnUse">
<stop stop-color="#1FE9F7" stop-opacity="0.12"/>
<stop offset="1" stop-color="#1FE9F7"/>
</linearGradient>
<linearGradient id="paint10_linear_27_703" x1="325.735" y1="61" x2="325.735" y2="81" gradientUnits="userSpaceOnUse">
<stop stop-color="#1FE9F7" stop-opacity="0.12"/>
<stop offset="1" stop-color="#1FE9F7"/>
</linearGradient>
<linearGradient id="paint11_linear_27_703" x1="356.853" y1="70" x2="356.853" y2="90" gradientUnits="userSpaceOnUse">
<stop stop-color="#1FE9F7" stop-opacity="0.12"/>
<stop offset="1" stop-color="#1FE9F7"/>
</linearGradient>
<linearGradient id="paint12_linear_27_703" x1="387.971" y1="70" x2="387.971" y2="90" gradientUnits="userSpaceOnUse">
<stop stop-color="#1FE9F7" stop-opacity="0.12"/>
<stop offset="1" stop-color="#1FE9F7"/>
</linearGradient>
<linearGradient id="paint13_linear_27_703" x1="419.088" y1="59" x2="419.088" y2="79" gradientUnits="userSpaceOnUse">
<stop stop-color="#1FE9F7" stop-opacity="0.12"/>
<stop offset="1" stop-color="#1FE9F7"/>
</linearGradient>
<linearGradient id="paint14_linear_27_703" x1="450.206" y1="61" x2="450.206" y2="81" gradientUnits="userSpaceOnUse">
<stop stop-color="#1FE9F7" stop-opacity="0.12"/>
<stop offset="1" stop-color="#1FE9F7"/>
</linearGradient>
<linearGradient id="paint15_linear_27_703" x1="481.324" y1="42" x2="481.324" y2="62" gradientUnits="userSpaceOnUse">
<stop stop-color="#1FE9F7" stop-opacity="0.12"/>
<stop offset="1" stop-color="#1FE9F7"/>
</linearGradient>
<linearGradient id="paint16_linear_27_703" x1="512.441" y1="64" x2="512.441" y2="84" gradientUnits="userSpaceOnUse">
<stop stop-color="#1FE9F7" stop-opacity="0.12"/>
<stop offset="1" stop-color="#1FE9F7"/>
</linearGradient>
<linearGradient id="paint17_linear_27_703" x1="543.559" y1="59" x2="543.559" y2="79" gradientUnits="userSpaceOnUse">
<stop stop-color="#1FE9F7" stop-opacity="0.12"/>
<stop offset="1" stop-color="#1FE9F7"/>
</linearGradient>
<linearGradient id="paint18_linear_27_703" x1="574.676" y1="62" x2="574.676" y2="82" gradientUnits="userSpaceOnUse">
<stop stop-color="#1FE9F7" stop-opacity="0.12"/>
<stop offset="1" stop-color="#1FE9F7"/>
</linearGradient>
<linearGradient id="paint19_linear_27_703" x1="605.794" y1="61" x2="605.794" y2="81" gradientUnits="userSpaceOnUse">
<stop stop-color="#1FE9F7" stop-opacity="0.12"/>
<stop offset="1" stop-color="#1FE9F7"/>
</linearGradient>
<linearGradient id="paint20_linear_27_703" x1="636.912" y1="68" x2="636.912" y2="88" gradientUnits="userSpaceOnUse">
<stop stop-color="#1FE9F7" stop-opacity="0.12"/>
<stop offset="1" stop-color="#1FE9F7"/>
</linearGradient>
<linearGradient id="paint21_linear_27_703" x1="668.03" y1="70" x2="668.03" y2="90" gradientUnits="userSpaceOnUse">
<stop stop-color="#1FE9F7" stop-opacity="0.12"/>
<stop offset="1" stop-color="#1FE9F7"/>
</linearGradient>
<linearGradient id="paint22_linear_27_703" x1="699.147" y1="74" x2="699.147" y2="94" gradientUnits="userSpaceOnUse">
<stop stop-color="#1FE9F7" stop-opacity="0.12"/>
<stop offset="1" stop-color="#1FE9F7"/>
</linearGradient>
<linearGradient id="paint23_linear_27_703" x1="730.265" y1="61" x2="730.265" y2="81" gradientUnits="userSpaceOnUse">
<stop stop-color="#1FE9F7" stop-opacity="0.12"/>
<stop offset="1" stop-color="#1FE9F7"/>
</linearGradient>
<linearGradient id="paint24_linear_27_703" x1="761.383" y1="68" x2="761.383" y2="88" gradientUnits="userSpaceOnUse">
<stop stop-color="#1FE9F7" stop-opacity="0.12"/>
<stop offset="1" stop-color="#1FE9F7"/>
</linearGradient>
<linearGradient id="paint25_linear_27_703" x1="792.5" y1="64" x2="792.5" y2="84" gradientUnits="userSpaceOnUse">
<stop stop-color="#1FE9F7" stop-opacity="0.12"/>
<stop offset="1" stop-color="#1FE9F7"/>
</linearGradient>
<linearGradient id="paint26_linear_27_703" x1="823.618" y1="64" x2="823.618" y2="84" gradientUnits="userSpaceOnUse">
<stop stop-color="#1FE9F7" stop-opacity="0.12"/>
<stop offset="1" stop-color="#1FE9F7"/>
</linearGradient>
<linearGradient id="paint27_linear_27_703" x1="854.736" y1="62" x2="854.736" y2="82" gradientUnits="userSpaceOnUse">
<stop stop-color="#1FE9F7" stop-opacity="0.12"/>
<stop offset="1" stop-color="#1FE9F7"/>
</linearGradient>
<linearGradient id="paint28_linear_27_703" x1="885.853" y1="42" x2="885.853" y2="62" gradientUnits="userSpaceOnUse">
<stop stop-color="#1FE9F7" stop-opacity="0.12"/>
<stop offset="1" stop-color="#1FE9F7"/>
</linearGradient>
<linearGradient id="paint29_linear_27_703" x1="916.971" y1="68" x2="916.971" y2="88" gradientUnits="userSpaceOnUse">
<stop stop-color="#1FE9F7" stop-opacity="0.12"/>
<stop offset="1" stop-color="#1FE9F7"/>
</linearGradient>
<linearGradient id="paint30_linear_27_703" x1="948.089" y1="74" x2="948.089" y2="94" gradientUnits="userSpaceOnUse">
<stop stop-color="#1FE9F7" stop-opacity="0.12"/>
<stop offset="1" stop-color="#1FE9F7"/>
</linearGradient>
<linearGradient id="paint31_linear_27_703" x1="979.206" y1="68" x2="979.206" y2="88" gradientUnits="userSpaceOnUse">
<stop stop-color="#1FE9F7" stop-opacity="0.12"/>
<stop offset="1" stop-color="#1FE9F7"/>
</linearGradient>
<linearGradient id="paint32_linear_27_703" x1="1010.32" y1="64" x2="1010.32" y2="84" gradientUnits="userSpaceOnUse">
<stop stop-color="#1FE9F7" stop-opacity="0.12"/>
<stop offset="1" stop-color="#1FE9F7"/>
</linearGradient>
<linearGradient id="paint33_linear_27_703" x1="1041.44" y1="42" x2="1041.44" y2="62" gradientUnits="userSpaceOnUse">
<stop stop-color="#1FE9F7" stop-opacity="0.12"/>
<stop offset="1" stop-color="#1FE9F7"/>
</linearGradient>
</defs>
</svg>
