<svg width="46" height="46" viewBox="0 0 46 46" fill="none" xmlns="http://www.w3.org/2000/svg">
<path d="M32.4617 1.31429C28.5418 7.47196 24.5342 13.7148 24.4089 13.8365C24.2788 13.9629 24.2336 13.9582 21.6537 9.7963C20.1759 7.39894 19.0487 5.95079 17.7838 4.80688C14.5652 1.88625 10.6452 0.474602 5.73591 0.462433C3.75715 0.450264 2.54234 0.571957 0.864144 0.937035L0 1.11958L0.989382 1.63069C2.29186 2.28783 3.05581 2.83545 4.04519 3.85767C5.63572 5.46402 6.71277 7.11905 9.17996 11.6825C12.5489 17.9254 14.2521 20.3836 17.2077 23.2677L18.7983 24.8132L18.8609 29.2307C18.9235 33.9402 19.0112 34.8042 19.6374 36.8122C20.5015 39.5624 22.4176 42.1302 24.8347 43.7974C26.2374 44.7587 28.8925 46 29.5562 46C29.694 46 29.719 44.1989 29.719 35.4127V24.8132L31.1467 22.6593C37.4087 13.1794 46 0.109524 46 0.0608482C46 0.0243378 43.1446 0 39.6504 0H33.2883L32.4617 1.31429Z" fill="#F2F4F5"/>
</svg>
